<svg width="67" height="61" viewBox="0 0 67 61" fill="none" xmlns="http://www.w3.org/2000/svg">
<path d="M2 2H20.7395C24.0529 2 27.2305 3.31622 29.5734 5.65912C31.9163 8.00202 33.2326 11.1797 33.2326 14.493V58.2186C33.2326 55.7336 32.2454 53.3503 30.4882 51.5932C28.731 49.836 26.3478 48.8488 23.8628 48.8488H2V2Z" stroke="#6300E0" stroke-width="4" stroke-linecap="round" stroke-linejoin="round"/>
<path d="M64.4651 2H45.7256C42.4122 2 39.2346 3.31622 36.8917 5.65912C34.5488 8.00202 33.2325 11.1797 33.2325 14.493V58.2186C33.2325 55.7336 34.2197 53.3503 35.9769 51.5932C37.7341 49.836 40.1173 48.8488 42.6023 48.8488H64.4651V2Z" stroke="#6300E0" stroke-width="4" stroke-linecap="round" stroke-linejoin="round"/>
</svg>
