<svg width="73" height="61" viewBox="0 0 73 61" fill="none" xmlns="http://www.w3.org/2000/svg">
<path d="M51.9721 58.2185V51.972C51.9721 48.6587 50.6559 45.481 48.313 43.1381C45.9701 40.7952 42.7924 39.479 39.4791 39.479H14.493C11.1797 39.479 8.00202 40.7952 5.65912 43.1381C3.31623 45.481 2 48.6587 2 51.972V58.2185" stroke="#6300E0" stroke-width="4" stroke-linecap="round" stroke-linejoin="round"/>
<path d="M26.986 26.986C33.8858 26.986 39.4791 21.3927 39.4791 14.493C39.4791 7.59332 33.8858 2 26.986 2C20.0863 2 14.493 7.59332 14.493 14.493C14.493 21.3927 20.0863 26.986 26.986 26.986Z" stroke="#6300E0" stroke-width="4" stroke-linecap="round" stroke-linejoin="round"/>
<path d="M70.7116 58.2183V51.9718C70.7095 49.2037 69.7882 46.5147 68.0923 44.327C66.3964 42.1393 64.022 40.5768 61.3418 39.8848" stroke="#6300E0" stroke-width="4" stroke-linecap="round" stroke-linejoin="round"/>
<path d="M48.8488 2.40576C51.5361 3.09382 53.918 4.65669 55.6189 6.848C57.3198 9.0393 58.2431 11.7344 58.2431 14.5084C58.2431 17.2824 57.3198 19.9774 55.6189 22.1687C53.918 24.3601 51.5361 25.9229 48.8488 26.611" stroke="#6300E0" stroke-width="4" stroke-linecap="round" stroke-linejoin="round"/>
</svg>
