<svg width="73" height="53" viewBox="0 0 73 53" fill="none" xmlns="http://www.w3.org/2000/svg">
<path d="M69.2767 9.55828C68.9057 8.07601 68.1501 6.7179 67.0862 5.62112C66.0223 4.52434 64.6879 3.72774 63.2176 3.31177C57.8456 2 36.3576 2 36.3576 2C36.3576 2 14.8696 2 9.4976 3.4367C8.02732 3.85267 6.69284 4.64927 5.62897 5.74605C4.56509 6.84283 3.80949 8.20094 3.43848 9.68321C2.45533 15.135 1.97441 20.6655 2.00179 26.2052C1.96674 31.7866 2.44769 37.3593 3.43848 42.8522C3.8475 44.2884 4.62003 45.5948 5.68143 46.6453C6.74283 47.6958 8.05722 48.4547 9.4976 48.8488C14.8696 50.2855 36.3576 50.2855 36.3576 50.2855C36.3576 50.2855 57.8456 50.2855 63.2176 48.8488C64.6879 48.4329 66.0223 47.6362 67.0862 46.5395C68.1501 45.4427 68.9057 44.0846 69.2767 42.6023C70.2523 37.1916 70.7332 31.7032 70.7134 26.2052C70.7484 20.6238 70.2675 15.0511 69.2767 9.55828V9.55828Z" stroke="#6300E0" stroke-width="4" stroke-linecap="round" stroke-linejoin="round"/>
<path d="M29.3302 36.4183L47.2889 26.2052L29.3302 15.9922V36.4183Z" stroke="#6300E0" stroke-width="4" stroke-linecap="round" stroke-linejoin="round"/>
</svg>
